<?xml version="1.0" encoding="UTF-8"?>
<!DOCTYPE svg PUBLIC "-//W3C//DTD SVG 1.1//EN" "http://www.w3.org/Graphics/SVG/1.1/DTD/svg11.dtd">
<svg xmlns="http://www.w3.org/2000/svg" version="1.1" width="81px" height="80px" style="shape-rendering:geometricPrecision; text-rendering:geometricPrecision; image-rendering:optimizeQuality; fill-rule:evenodd; clip-rule:evenodd" xmlns:xlink="http://www.w3.org/1999/xlink">
<g><path style="opacity:1" fill="#c6a081" d="M 24.5,-0.5 C 28.5,-0.5 32.5,-0.5 36.5,-0.5C 40.1832,1.3409 43.5165,3.67423 46.5,6.5C 46.427,8.02694 47.0937,9.02694 48.5,9.5C 49.1667,9.5 49.5,9.83333 49.5,10.5C 49.427,12.0269 50.0937,13.0269 51.5,13.5C 55.1668,18.16 56.6668,23.4934 56,29.5C 54.2196,30.6394 52.3863,31.6394 50.5,32.5C 49.8333,31.8333 49.1667,31.1667 48.5,30.5C 47.6252,28.4319 46.4585,26.4319 45,24.5C 42.0123,22.6009 39.1789,20.6009 36.5,18.5C 36.0269,17.0937 35.0269,16.427 33.5,16.5C 32.5,16.1667 31.8333,15.5 31.5,14.5C 30.4154,12.4131 28.7488,11.0798 26.5,10.5C 24.2558,8.41563 22.5892,5.91563 21.5,3C 22.0707,1.40088 23.0707,0.234212 24.5,-0.5 Z"/></g>
<g><path style="opacity:0.988" fill="#dec8b5" d="M 19.5,10.5 C 18.3951,9.39952 17.0618,8.73286 15.5,8.5C 15.7828,7.71087 16.2828,7.0442 17,6.5C 18.4813,7.47088 19.3146,8.80422 19.5,10.5 Z"/></g>
<g><path style="opacity:0.725" fill="#e4d2c4" d="M 46.5,6.5 C 47.9063,6.97306 48.573,7.97306 48.5,9.5C 47.0937,9.02694 46.427,8.02694 46.5,6.5 Z"/></g>
<g><path style="opacity:1" fill="#c49e7d" d="M 15.5,8.5 C 17.0618,8.73286 18.3951,9.39952 19.5,10.5C 21.1667,14.1667 23.8333,16.8333 27.5,18.5C 30.1667,20.5 32.8333,22.5 35.5,24.5C 35.8212,26.0481 36.8212,26.7148 38.5,26.5C 39.1667,26.8333 39.8333,27.1667 40.5,27.5C 40.427,29.0269 41.0937,30.0269 42.5,30.5C 43.6408,33.6399 43.8075,36.9733 43,40.5C 40.6535,43.1943 38.8202,46.1943 37.5,49.5C 35.1667,48.1667 32.8333,46.8333 30.5,45.5C 30.0269,44.0937 29.0269,43.427 27.5,43.5C 20.8693,41.7002 16.7026,37.3669 15,30.5C 12.8616,23.0313 13.0283,15.698 15.5,8.5 Z"/></g>
<g><path style="opacity:0.639" fill="#e9dace" d="M 26.5,10.5 C 28.7488,11.0798 30.4154,12.4131 31.5,14.5C 29.2512,13.9202 27.5846,12.5869 26.5,10.5 Z"/></g>
<g><path style="opacity:0.89" fill="#e7d7ca" d="M 19.5,10.5 C 22.5,12.8333 25.1667,15.5 27.5,18.5C 23.8333,16.8333 21.1667,14.1667 19.5,10.5 Z"/></g>
<g><path style="opacity:0.541" fill="#e2cfbe" d="M 49.5,10.5 C 50.9063,10.9731 51.573,11.9731 51.5,13.5C 50.0937,13.0269 49.427,12.0269 49.5,10.5 Z"/></g>
<g><path style="opacity:0.796" fill="#e2cfbe" d="M 33.5,16.5 C 35.0269,16.427 36.0269,17.0937 36.5,18.5C 34.9731,18.573 33.9731,17.9063 33.5,16.5 Z"/></g>
<g><path style="opacity:0.914" fill="#e2cebe" d="M 35.5,24.5 C 36.7095,24.9321 37.7095,25.5987 38.5,26.5C 36.8212,26.7148 35.8212,26.0481 35.5,24.5 Z"/></g>
<g><path style="opacity:0.478" fill="#e6d5c7" d="M 40.5,27.5 C 41.9063,27.9731 42.573,28.9731 42.5,30.5C 41.0937,30.0269 40.427,29.0269 40.5,27.5 Z"/></g>
<g><path style="opacity:0.494" fill="#eadcd0" d="M 60.5,30.5 C 63.3553,29.1968 66.3553,29.1968 69.5,30.5C 69.3764,31.1067 69.0431,31.44 68.5,31.5C 66.0521,30.5269 63.3854,30.1936 60.5,30.5 Z"/></g>
<g><path style="opacity:1" fill="#c7a283" d="M 60.5,30.5 C 63.3854,30.1936 66.0521,30.5269 68.5,31.5C 63.7574,34.7513 60.2574,39.0846 58,44.5C 57.9173,50.9418 57.2507,57.2752 56,63.5C 51.6203,67.548 46.9537,71.2147 42,74.5C 41.0565,73.737 40.5565,72.737 40.5,71.5C 41.9741,65.2902 41.3075,59.2902 38.5,53.5C 38.9394,50.8239 39.9394,48.4905 41.5,46.5C 42.9063,46.0269 43.573,45.0269 43.5,43.5C 44.9063,43.0269 45.573,42.0269 45.5,40.5C 48.9885,34.9209 53.9885,31.5876 60.5,30.5 Z"/></g>
<g><path style="opacity:0.039" fill="#f2e9e3" d="M 48.5,30.5 C 49.1667,31.1667 49.8333,31.8333 50.5,32.5C 50.44,33.0431 50.1067,33.3764 49.5,33.5C 48.6143,32.675 48.281,31.675 48.5,30.5 Z"/></g>
<g><path style="opacity:0.71" fill="#dfcab8" d="M 76.5,36.5 C 75.8501,36.1961 75.1835,35.8627 74.5,35.5C 73.0603,36.9524 71.3936,37.9524 69.5,38.5C 70.8121,36.5212 72.4788,34.8545 74.5,33.5C 75.9185,34.0047 76.5852,35.0047 76.5,36.5 Z"/></g>
<g><path style="opacity:1" fill="#c6a182" d="M 76.5,36.5 C 81.2934,53.5956 75.9601,66.7623 60.5,76C 58.26,76.977 55.9267,77.477 53.5,77.5C 52.1266,77.6567 50.7932,77.49 49.5,77C 50.7101,75.9609 51.7101,74.7942 52.5,73.5C 54.6068,71.2733 56.9401,69.2733 59.5,67.5C 60.9063,67.0269 61.573,66.0269 61.5,64.5C 62.1282,57.8011 62.7949,51.1344 63.5,44.5C 64.9063,44.0269 65.573,43.0269 65.5,41.5C 66.2623,39.7376 67.5956,38.7376 69.5,38.5C 71.3936,37.9524 73.0603,36.9524 74.5,35.5C 75.1835,35.8627 75.8501,36.1961 76.5,36.5 Z"/></g>
<g><path style="opacity:0.525" fill="#e4d2c4" d="M 45.5,40.5 C 45.573,42.0269 44.9063,43.0269 43.5,43.5C 43.427,41.9731 44.0937,40.9731 45.5,40.5 Z"/></g>
<g><path style="opacity:1" fill="#c9a587" d="M 38.5,61.5 C 38.8016,64.0593 38.4682,66.3926 37.5,68.5C 31.7607,67.9793 26.9274,65.646 23,61.5C 22.1249,51.2914 16.6249,45.7914 6.5,45C 17.5977,41.0245 27.0977,43.5245 35,52.5C 36.7411,55.3093 37.9078,58.3093 38.5,61.5 Z"/></g>
<g><path style="opacity:0.416" fill="#e7d7ca" d="M 65.5,41.5 C 65.573,43.0269 64.9063,44.0269 63.5,44.5C 63.427,42.9731 64.0937,41.9731 65.5,41.5 Z"/></g>
<g><path style="opacity:0.482" fill="#e4d2c3" d="M 27.5,43.5 C 29.0269,43.427 30.0269,44.0937 30.5,45.5C 28.9731,45.573 27.9731,44.9063 27.5,43.5 Z"/></g>
<g><path style="opacity:0.89" fill="#e7d6c8" d="M 30.5,45.5 C 32.8333,46.8333 35.1667,48.1667 37.5,49.5C 34.4194,50.1944 32.0861,48.861 30.5,45.5 Z"/></g>
<g><path style="opacity:0.416" fill="#e6d6c8" d="M 43.5,43.5 C 43.573,45.0269 42.9063,46.0269 41.5,46.5C 41.427,44.9731 42.0937,43.9731 43.5,43.5 Z"/></g>
<g><path style="opacity:1" fill="#c59f80" d="M 15.5,55.5 C 15.2594,57.8984 15.9261,59.8984 17.5,61.5C 21.4733,67.7932 27.1399,71.7932 34.5,73.5C 34.4431,74.609 34.1098,75.609 33.5,76.5C 32.713,78.1042 31.3797,78.7709 29.5,78.5C 24.1301,78.6079 18.7968,78.2745 13.5,77.5C 7.13505,74.4684 2.46839,69.8018 -0.5,63.5C -0.5,59.5 -0.5,55.5 -0.5,51.5C 0.221579,51.0825 0.721579,50.4158 1,49.5C 5.03727,50.7931 9.20393,51.6264 13.5,52C 14.8228,52.8159 15.4894,53.9826 15.5,55.5 Z"/></g>
<g><path style="opacity:0.984" fill="#dac0ab" d="M 15.5,55.5 C 16.7384,57.2143 17.405,59.2143 17.5,61.5C 15.9261,59.8984 15.2594,57.8984 15.5,55.5 Z"/></g>
<g><path style="opacity:0.369" fill="#f0e6de" d="M 38.5,61.5 C 39.8003,64.0241 39.8003,66.6908 38.5,69.5C 37.8933,69.3764 37.56,69.0431 37.5,68.5C 38.4682,66.3926 38.8016,64.0593 38.5,61.5 Z"/></g>
<g><path style="opacity:0.514" fill="#e5d4c6" d="M 61.5,64.5 C 61.573,66.0269 60.9063,67.0269 59.5,67.5C 59.427,65.9731 60.0937,64.9731 61.5,64.5 Z"/></g>
<g><path style="opacity:0.004" fill="#eee3da" d="M 34.5,73.5 C 35.2389,73.369 35.9056,73.5357 36.5,74C 35.9221,75.417 34.9221,76.2504 33.5,76.5C 34.1098,75.609 34.4431,74.609 34.5,73.5 Z"/></g>
<g><path style="opacity:0.969" fill="#e1ccbb" d="M 52.5,73.5 C 51.7101,74.7942 50.7101,75.9609 49.5,77C 50.7932,77.49 52.1266,77.6567 53.5,77.5C 46.1321,78.4431 45.7988,77.1098 52.5,73.5 Z"/></g>
<g><path style="opacity:0.957" fill="#d3b59d" d="M 13.5,77.5 C 18.7968,78.2745 24.1301,78.6079 29.5,78.5C 29.5,78.8333 29.5,79.1667 29.5,79.5C 25.1667,79.5 20.8333,79.5 16.5,79.5C 15.5,78.8333 14.5,78.1667 13.5,77.5 Z"/></g>
</svg>
